<svg version="1" xmlns="http://www.w3.org/2000/svg" width="21.333" height="21.333" viewBox="0 0 16.000000 16.000000"><path d="M4.533 4.55c-1.75 1.766-3.2 3.317-3.2 3.45 0 .333 6.35 6.667 6.667 6.667.334 0 6.667-6.334 6.667-6.667 0-.333-6.333-6.667-6.667-6.667-.133 0-1.7 1.45-3.467 3.217zm6.05 1.7l1.067 1.083-1.05 1.084C10 9.017 9.484 9.5 9.434 9.5c-.05 0-.1-.333-.1-.75V8H6.667v2H5.333V8.533c0-.917.067-1.533.2-1.667.134-.133.817-.2 2-.2h1.8v-.75c0-.416.034-.75.1-.75.05 0 .567.484 1.15 1.084z"/></svg>