<?xml version="1.0" standalone="no"?>
<!DOCTYPE svg PUBLIC "-//W3C//DTD SVG 20010904//EN"
 "http://www.w3.org/TR/2001/REC-SVG-20010904/DTD/svg10.dtd">
<svg version="1.0" xmlns="http://www.w3.org/2000/svg"
 width="16.000000pt" height="16.000000pt" viewBox="0 0 16.000000 16.000000"
 preserveAspectRatio="xMidYMid meet">
<metadata>
Created by potrace 1.11, written by Peter Selinger 2001-2013
</metadata>
<g transform="translate(0.000000,16.000000) scale(0.016667,-0.016667)"
fill="#000000" stroke="none">
<path d="M272 687 c-105 -106 -192 -199 -192 -207 0 -20 381 -400 400 -400 20
0 400 380 400 400 0 20 -380 400 -400 400 -8 0 -102 -87 -208 -193z m363 -102
l64 -65 -63 -65 c-36 -36 -67 -65 -70 -65 -3 0 -6 20 -6 45 l0 45 -80 0 -80 0
0 -60 0 -60 -40 0 -40 0 0 88 c0 55 4 92 12 100 8 8 49 12 120 12 l108 0 0 45
c0 25 2 45 6 45 3 0 34 -29 69 -65z"/>
</g>
</svg>
